<?xml version="1.0" encoding="UTF-8"?>
<svg id="_Слой_2" data-name="Слой 2" xmlns="http://www.w3.org/2000/svg" viewBox="0 0 485.37 201.9">
  <defs>
    <style>
      .cls-1 {
        fill: #010101;
      }
    </style>
  </defs>
  <g id="Layer_1" data-name="Layer 1">
    <g>
      <g>
        <path class="cls-1" d="M1.59,87.01c-1.06,0-1.59-.47-1.59-1.42-.1-.94,.79-3.04,2.7-6.29,1.8-3.15,5.26-8.73,10.39-16.76,5.13-8.02,8.75-13.5,10.87-16.44l.48-1.1c-.32,.21-1.11,.31-2.38,.31s-2.17-.1-2.7-.31c-1.06-.32-1.85-.84-2.38-1.57-.53-.73-.48-1.57,.16-2.52,.74-.94,1.85-1.31,3.33-1.1,1.48,.21,2.96,.89,4.44,2.04l1.27,.79,3.33-4.88c4.65-7.03,10.16-14.69,16.5-22.97,4.65-5.87,7.83-10.02,9.52-12.43,1.06-1.57,1.8-2.36,2.22-2.36,.85,0,1.21,.37,1.11,1.1-.42,1.57-3.39,6.03-8.89,13.37l-12.69,17.31c-4.87,6.82-7.25,10.28-7.14,10.38,.32,.32,4.44-1.47,12.38-5.35,6.88-3.67,13.8-8.29,20.79-13.85,5.92-4.41,11.05-8.76,15.39-13.06,1.9-1.57,2.96-2.1,3.17-1.57,.1,.21-.19,.79-.87,1.73-.69,.94-1.14,1.36-1.35,1.26-.21,0-.9,.58-2.06,1.73-5.29,5.14-10.79,9.81-16.5,14-10.58,7.87-20.68,13.38-30.31,16.52-1.38,.53-2.17,.84-2.38,.94-.21,.11-.16,.42,.16,.94,2.01,2.73,3.86,6.92,5.55,12.59,1.27,3.99,2.01,6.24,2.22,6.77,2.54,7.13,6.13,11.54,10.79,13.22,2.01,.94,4.6,1.05,7.78,.31,3.17-.73,6.08-2.15,8.73-4.25,.32-.32,.58-.37,.79-.16,.53,.53,.1,1.21-1.27,2.04-5.61,3.57-10.58,4.72-14.91,3.46-4.13-1.15-7.62-3.83-10.47-8.02-1.69-2.62-3.6-7.34-5.71-14.16-1.59-5.24-3.01-8.81-4.28-10.7l-.48-.47-2.54,3.46C10.06,71.18,2.39,83.13,1.75,85.44c-.11,.31,0,.68,.32,1.1,.53,.42,.37,.58-.48,.47ZM22.38,44.06l2.7-.31c.1-.1-.03-.34-.4-.71-.37-.37-.85-.73-1.43-1.1-.58-.37-1.03-.6-1.35-.71-2.22-.94-3.49-.79-3.81,.47-.32,1.05,.32,1.79,1.9,2.2,.63,.21,1.43,.26,2.38,.16Z"/>
        <path class="cls-1" d="M63.63,65.61c0-1.47,1.16-3.78,3.49-6.92l1.11-1.57-.16,.16c-.11,0-.29,.08-.56,.24-.26,.16-.5,.29-.71,.39-3.17,1.68-5.13,2.52-5.87,2.52-.42,0-.74-.1-.95-.31-.74-1.05-.05-2.88,2.06-5.51,2.22-3.04,3.97-4.82,5.24-5.35l.48-.16c.42,0,.74,.31,.95,.94,.21,.31-.53,1.26-2.22,2.83-.85,.74-1.72,1.6-2.62,2.6-.9,1-1.61,1.84-2.14,2.52-.53,.68-.74,1.08-.63,1.18,0,.11,.45-.02,1.35-.39,.9-.37,1.96-.87,3.17-1.5,1.21-.63,2.25-1.2,3.09-1.73,.95-.63,2.17-1.57,3.65-2.83,1.69-1.57,2.7-2.2,3.01-1.89,.32,.42,.37,.84,.16,1.26-.21,.42-1.17,1.42-2.86,2.99-4.55,4.51-7.19,7.71-7.93,9.6-.95,2.41,.79,2.67,5.24,.79,5.61-2.41,12.69-6.77,21.26-13.06,.42-.21,.79-.16,1.11,.16-3.07,2.52-6.82,5.09-11.27,7.71-5.39,3.46-9.47,5.66-12.22,6.61-3.49,1.36-5.24,.94-5.24-1.26Z"/>
        <path class="cls-1" d="M57.44,107.31c-.1,.21-.37,.1-.79-.31l-.48-.16,1.43-2.2,15.23-24.7c12.8-20.14,22.21-33.93,28.24-41.38,.74-.84,1.27-1.21,1.59-1.1,.32,0,.48,.05,.48,.16,0,.53-1.9,3.52-5.71,8.97l-3.81,5.35,.32,.47,.32,.63,2.86-1.57c2.75-1.36,4.76-2.15,6.03-2.36,1.06,0,1.69,.31,1.9,.94,.42,1.05-.53,3.09-2.86,6.14l-2.06,2.36c4.02,1.57,8.94,.74,14.76-2.52,1.8-1.05,3.65-2.25,5.55-3.62,.21-.21,.4-.26,.56-.16,.16,.11,.18,.26,.08,.47l-.79,.79c-2.33,1.79-4.28,3.04-5.87,3.78-5.5,2.83-10.58,3.52-15.23,2.05l-1.43,1.57c-3.81,3.57-6.4,4.15-7.78,1.73-.53-1.05-.53-2.41,0-4.09l.16-.79c-.21,.31-1.48,2.1-3.81,5.35-5.39,7.34-11.48,16.63-18.25,27.85-6.35,10.17-9.89,15.63-10.63,16.36Zm33.96-44.21c.84,.21,1.85-.16,3.01-1.1,.32-.21,.77-.58,1.35-1.1,.58-.52,1.08-1,1.51-1.42l.48-.79c-1.38-.73-2.59-1.89-3.65-3.46-.11-.32-.42-.26-.95,.16-.53,.42-1.06,1.21-1.59,2.36-1.17,3.25-1.22,5.04-.16,5.35Zm7.14-5.19c.1,0,.4-.26,.87-.79,.48-.52,1.03-1.18,1.67-1.97,.63-.79,1.11-1.44,1.43-1.97,.63-.84,1.06-1.57,1.27-2.2,.21-.52,.26-.84,.16-.94-.32-.32-2.06,.26-5.24,1.73-2.54,1.36-3.81,2.31-3.81,2.83,0,.31,.45,.94,1.35,1.89,.9,.94,1.67,1.42,2.3,1.42Z"/>
        <path class="cls-1" d="M120.27,65.61c0-1.47,1.16-3.78,3.49-6.92l1.11-1.57-.16,.16c-.11,0-.29,.08-.56,.24-.26,.16-.5,.29-.71,.39-3.17,1.68-5.13,2.52-5.87,2.52-.42,0-.74-.1-.95-.31-.74-1.05-.05-2.88,2.06-5.51,2.22-3.04,3.97-4.82,5.24-5.35l.48-.16c.42,0,.74,.31,.95,.94,.21,.31-.53,1.26-2.22,2.83-.85,.74-1.72,1.6-2.62,2.6-.9,1-1.61,1.84-2.14,2.52-.53,.68-.74,1.08-.63,1.18,0,.11,.45-.02,1.35-.39,.9-.37,1.96-.87,3.17-1.5,1.21-.63,2.25-1.2,3.09-1.73,.95-.63,2.17-1.57,3.65-2.83,1.69-1.57,2.7-2.2,3.01-1.89,.32,.42,.37,.84,.16,1.26-.21,.42-1.17,1.42-2.86,2.99-4.55,4.51-7.19,7.71-7.93,9.6-.95,2.41,.79,2.67,5.24,.79,5.61-2.41,12.69-6.77,21.26-13.06,.42-.21,.79-.16,1.11,.16-3.07,2.52-6.82,5.09-11.27,7.71-5.39,3.46-9.47,5.66-12.22,6.61-3.49,1.36-5.24,.94-5.24-1.26Z"/>
        <path class="cls-1" d="M154.23,64.83c-.53-.21-.9-.47-1.11-.79-.21-.32-.32-.94-.32-1.89,.21-2.1,2.06-5.14,5.55-9.13l1.27-1.42-.95,.79c-1.69,1.26-4.23,2.94-7.62,5.04-3.28,1.79-5.29,2.26-6.03,1.42-.85-1.05-.63-2.46,.63-4.25,2.22-2.94,3.49-3.67,3.81-2.2,.1,.42-.32,1.1-1.27,2.05-.42,.42-.85,.94-1.27,1.57-.42,.63-.74,1.16-.95,1.57-.21,.42-.26,.68-.16,.79,.42,.42,2.17-.26,5.24-2.04,4.55-2.52,8.46-5.35,11.74-8.5,1.16-.94,1.8-1.42,1.9-1.42,1.27-.1,1.9,.16,1.9,.79,0,.42-1.32,1.84-3.97,4.25-3.81,3.88-6.29,6.77-7.46,8.65-1.48,2.41-1.69,3.72-.63,3.93,1.16,.21,2.67-.16,4.52-1.1,1.85-.94,5.05-2.94,9.6-5.98,.32-.21,.82-.55,1.51-1.02,.69-.47,1.29-.89,1.83-1.26,.53-.37,1-.71,1.43-1.02l2.06-1.42c.21-.1,.4-.08,.56,.08,.16,.16,.13,.34-.08,.55l-.79,.63-2.38,1.73c-8.78,5.98-14.23,9.18-16.34,9.6-1.27,.21-2.01,.21-2.22,0Z"/>
        <path class="cls-1" d="M181.68,64.83c-.53-.21-.9-.47-1.11-.79-.21-.32-.32-.94-.32-1.89,.21-2.1,2.06-5.14,5.55-9.13l1.27-1.42-.95,.79c-1.69,1.26-4.23,2.94-7.62,5.04-3.28,1.79-5.29,2.26-6.03,1.42-.85-1.05-.63-2.46,.63-4.25,2.22-2.94,3.49-3.67,3.81-2.2,.1,.42-.32,1.1-1.27,2.05-.42,.42-.85,.94-1.27,1.57-.42,.63-.74,1.16-.95,1.57-.21,.42-.26,.68-.16,.79,.42,.42,2.17-.26,5.24-2.04,4.55-2.52,8.46-5.35,11.74-8.5,1.16-.94,1.8-1.42,1.9-1.42,1.27-.1,1.9,.16,1.9,.79,0,.42-1.32,1.84-3.97,4.25-3.81,3.88-6.29,6.77-7.46,8.65-1.48,2.41-1.69,3.72-.63,3.93,1.16,.21,2.67-.16,4.52-1.1,1.85-.94,5.05-2.94,9.6-5.98,.32-.21,.82-.55,1.51-1.02,.69-.47,1.29-.89,1.83-1.26,.53-.37,1-.71,1.43-1.02l2.06-1.42c.21-.1,.4-.08,.56,.08,.16,.16,.13,.34-.08,.55l-.79,.63-2.38,1.73c-8.78,5.98-14.23,9.18-16.34,9.6-1.27,.21-2.01,.21-2.22,0Z"/>
        <path class="cls-1" d="M224.83,65.61c0-1.47,1.16-3.78,3.49-6.92l1.11-1.57-.16,.16c-.11,0-.29,.08-.56,.24-.26,.16-.5,.29-.71,.39-3.17,1.68-5.13,2.52-5.87,2.52-.42,0-.74-.1-.95-.31-.74-1.05-.05-2.88,2.06-5.51,2.22-3.04,3.97-4.82,5.24-5.35l.48-.16c.42,0,.74,.31,.95,.94,.21,.31-.53,1.26-2.22,2.83-.85,.74-1.72,1.6-2.62,2.6-.9,1-1.61,1.84-2.14,2.52-.53,.68-.74,1.08-.63,1.18,0,.11,.45-.02,1.35-.39,.9-.37,1.96-.87,3.17-1.5,1.21-.63,2.25-1.2,3.09-1.73,.95-.63,2.17-1.57,3.65-2.83,1.69-1.57,2.7-2.2,3.01-1.89,.32,.42,.37,.84,.16,1.26-.21,.42-1.17,1.42-2.86,2.99-4.55,4.51-7.19,7.71-7.93,9.6-.95,2.41,.79,2.67,5.24,.79,5.61-2.41,12.69-6.77,21.26-13.06,.42-.21,.79-.16,1.11,.16-3.07,2.52-6.82,5.09-11.27,7.71-5.39,3.46-9.47,5.66-12.22,6.61-3.49,1.36-5.24,.94-5.24-1.26Z"/>
      </g>
      <g>
        <path class="cls-1" d="M231.66,165.4c-1.17-.21-1.85-1.05-2.06-2.52-.21-4.3,6.03-14.26,18.72-29.9l1.27-2.05-1.27-.47c-9.63-3.67-16.24-5.82-19.83-6.45-.42,0-4.02,1.73-10.79,5.19-8.99,4.93-16.18,10.28-21.58,16.05-2.96,3.25-4.44,5.72-4.44,7.4,0,.21,.16,.05,.48-.47l.16-.63,.16,.63-.48,1.1c-.32,.74-.74,.84-1.27,.31-.63-.63-.42-1.94,.63-3.93,1.9-3.46,4.28-6.5,7.14-9.13,3.91-3.56,9.2-7.29,15.87-11.17,1.16-.63,3.12-1.6,5.87-2.91,2.75-1.31,4.28-2.07,4.6-2.28l.95-.63-.79-.16c-2.54-.84-5.87-1.26-10-1.26-7.72,.42-14.07,2.42-19.04,5.98-2.01,1.47-3.17,2.89-3.49,4.25,0,.73,.95,1.1,2.86,1.1,.21,0,.32,.05,.32,.16-.42,.42-1.27,.53-2.54,.31-.53-.21-.85-.42-.95-.63-.95-1.99,.63-4.41,4.76-7.24,4.65-2.94,10.58-4.56,17.77-4.88,4.23,0,7.93,.42,11.11,1.26l1.75,.31,13.49-6.14c18.83-8.5,29.46-13.43,31.89-14.79,1.37-.73,2.43-1.57,3.17-2.52,3.7-4.09,8.67-8.44,14.92-13.06,2.75-2.31,5.08-3.83,6.98-4.56,.74-.21,1.43-.16,2.06,.16,.63,.31,.9,.73,.79,1.26,0,1.16-2.49,3.57-7.46,7.24-6.14,4.62-9.89,7.29-11.27,8.03-1.06,.42-1.96,1-2.7,1.73-3.17,2.73-8.83,9.13-16.98,19.2-6.24,7.34-9.36,11.28-9.36,11.8,12.69,5.35,20.04,7.13,22.05,5.35,.74-.63,1.21-.84,1.43-.63,.32,.21,0,.68-.95,1.42-1.69,1.05-3.92,1.26-6.66,.63-2.75-.63-8.25-2.62-16.5-5.98l-1.27,1.57c-8.78,10.6-14.76,18.83-17.93,24.7-1.8,3.46-2.33,5.61-1.59,6.45,.53,.53,.53,.79,0,.79Zm18.72-35.4c.53-.52,1.11-1.21,1.75-2.05,2.12-2.52,5.13-6.24,9.04-11.17,3.91-4.93,6.61-8.23,8.09-9.91l2.22-2.67-2.54,1.1c-4.87,2.41-14.6,6.92-29.2,13.53l-8.57,3.78-1.43,.79c.21,0,.53,.05,.95,.16,2.75,.73,5.76,1.63,9.04,2.67,3.28,1.05,5.87,1.94,7.77,2.67l2.86,1.1Zm34.59-35.25l1.11-.79c4.23-2.94,8.25-6.29,12.06-10.07l.16-.31c-.42,.21-1.38,.89-2.86,2.05-1.38,1.05-4.39,3.62-9.04,7.71l-1.43,1.42Z"/>
        <path class="cls-1" d="M281.48,148.56c-.53-.21-.9-.47-1.11-.79-.21-.32-.32-.94-.32-1.89,.21-2.1,2.06-5.14,5.55-9.13l1.27-1.42-.95,.79c-1.69,1.26-4.23,2.94-7.62,5.04-3.28,1.79-5.29,2.26-6.03,1.42-.85-1.05-.63-2.46,.63-4.25,2.22-2.94,3.49-3.67,3.81-2.2,.1,.42-.32,1.1-1.27,2.05-.42,.42-.85,.94-1.27,1.57-.42,.63-.74,1.16-.95,1.57-.21,.42-.26,.68-.16,.79,.42,.42,2.17-.26,5.24-2.04,4.55-2.52,8.46-5.35,11.74-8.5,1.16-.94,1.8-1.42,1.9-1.42,1.27-.1,1.9,.16,1.9,.79,0,.42-1.32,1.84-3.97,4.25-3.81,3.88-6.29,6.77-7.46,8.65-1.48,2.41-1.69,3.72-.63,3.93,1.16,.21,2.67-.16,4.52-1.1,1.85-.94,5.05-2.94,9.6-5.98,.32-.21,.82-.55,1.51-1.02,.69-.47,1.29-.89,1.83-1.26,.53-.37,1-.71,1.43-1.02l2.06-1.42c.21-.1,.4-.08,.56,.08,.16,.16,.13,.34-.08,.55l-.79,.63-2.38,1.73c-8.78,5.98-14.23,9.18-16.34,9.6-1.27,.21-2.01,.21-2.22,0Z"/>
        <path class="cls-1" d="M298.46,144.63c-1.38-1.36-1.27-3.15,.32-5.35,1.16-1.99,2.86-3.46,5.08-4.41,1.27-.52,2.17-.52,2.7,0,.42,.31,.5,.84,.24,1.57-.27,.74-.77,1.36-1.51,1.89-1.48,1.05-3.01,1.68-4.6,1.89-.42,0-.79,.26-1.11,.79-1.27,2.2-.69,3.46,1.75,3.78,4.76,0,10.68-2.46,17.77-7.4l1.9-1.26c.1-.1,.26-.1,.48,0,.21,.11,.26,.26,.16,.47-3.92,3.15-8.36,5.66-13.33,7.55-4.97,1.89-8.25,2.04-9.84,.47Zm2.38-5.35c.74,0,1.8-.42,3.17-1.26,.95-.63,1.59-1.31,1.9-2.05,.1-.31,0-.47-.32-.47l-1.75,.94c-2.12,1.57-3.12,2.52-3.01,2.83Z"/>
        <path class="cls-1" d="M326.06,146.52c-2.22-.73-2.59-3.46-1.11-8.18l.32-1.26c-.21-.21-.9,.16-2.06,1.1-.85,.63-1.96,1.6-3.33,2.91-1.38,1.31-2.17,2.18-2.38,2.6-.32,.53-.48,.89-.48,1.1,0,.42-.21,.42-.63,0-.85-.84,.37-3.46,3.65-7.87,1.48-1.99,2.96-3.62,4.44-4.88,.85-.73,1.48-.84,1.9-.31,.32,.42-.21,1.36-1.59,2.83-1.38,1.26-2.43,2.47-3.17,3.62,.21-.1,.42-.26,.63-.47,4.12-3.46,8.25-5.93,12.38-7.4,1.16-.42,2.06-.47,2.7-.16s.9,.89,.79,1.73c-.11,.63-.71,1.76-1.82,3.38-1.11,1.63-2.04,2.75-2.78,3.38-.74,.74-1.27,.94-1.59,.63-.11-.1,.05-.31,.48-.63,.53-.42,1.59-1.73,3.17-3.93,1.06-1.89,1.59-3.04,1.59-3.46,0-.94-2.12-.32-6.35,1.89-.11,.11-.26,.21-.48,.31-2.65,1.47-4.18,2.42-4.6,2.83,0,.21,.05,.37,.16,.47,.32,.31,.21,1.21-.32,2.67-.21,.84-.32,1.89-.32,3.15-.11,2.2,.58,3.3,2.06,3.3,2.11,0,5.34-1.47,9.68-4.41,.85-.52,2.43-1.73,4.76-3.62l2.22-1.57,.48-.32c.21-.1,.37-.1,.48,0v.63l-1.27,.94c-5.18,3.99-9.04,6.61-11.58,7.87-2.54,1.26-4.55,1.63-6.03,1.1Z"/>
        <path class="cls-1" d="M340.98,145.1c-1.17-.94-1.54-2.15-1.11-3.62,.53-1.47,1.61-3.04,3.25-4.72,1.64-1.68,3.3-2.88,5-3.62,.95-.42,1.8-.55,2.54-.39,.74,.16,1.11,.5,1.11,1.02,0,.84-.63,1.94-1.9,3.3-1.59,1.36-2.64,2.05-3.17,2.05-.74,0-.63-.31,.32-.94,1.16-.73,2.17-1.6,3.01-2.6,.85-1,1.11-1.65,.79-1.97-.32-.32-1.32,.11-3.01,1.26-2.22,1.36-3.99,3.02-5.32,4.96-1.32,1.94-1.72,3.38-1.19,4.33,.42,.94,2.01,1.26,4.76,.94,2.75-.32,5.71-1.21,8.89-2.68,2.86-1.36,5.66-3.04,8.41-5.04,.32-.21,.74-.47,1.27-.79l.79-.63c.32,0,.53,.16,.63,.47l-.79,.63c-1.59,1.26-3.81,2.73-6.66,4.41l-3.49,1.73c-6.66,3.25-11.37,3.88-14.12,1.89Z"/>
        <path class="cls-1" d="M366.84,147.15c-.74-.42-1.11-1.2-1.11-2.36s.21-2.25,.63-3.3l.32-.79-.95,.47c-.53,.42-1.01,.74-1.43,.94-.21,.11-.58,.31-1.11,.63-.53,.31-.95,.58-1.27,.79-.74,.42-1.4,.39-1.98-.08-.58-.47-.71-1.18-.4-2.12,.42-1.05,1.56-2.31,3.41-3.78,1.85-1.47,3.52-2.41,5-2.83,1.27-.31,2.17-.05,2.7,.79,.21,.31,.37,.42,.48,.31,.53-.21,.9-.1,1.11,.31l-.16,.16c-.11,.21-.21,.39-.32,.55-.11,.16-.21,.34-.32,.55-2.12,2.1-3.49,3.99-4.12,5.67-.53,1.68-.48,2.78,.16,3.3,.95,.63,3.12,.26,6.51-1.1,3.49-1.36,7.83-3.99,13.01-7.87,1.8-1.36,2.64-1.73,2.54-1.1-.11,.42-1.56,1.63-4.36,3.62-2.8,1.99-5.26,3.57-7.38,4.72-1.38,.74-2.75,1.36-4.12,1.89-1.38,.53-2.67,.87-3.89,1.02-1.22,.16-2.2,.03-2.94-.39Zm-4.28-6.14c-.53,.63-.74,.94-.63,.94s1-.47,2.7-1.42c3.59-1.99,5.39-3.51,5.39-4.56-.21-.63-1.06-.42-2.54,.63-1.8,1.16-3.44,2.62-4.92,4.41Z"/>
        <path class="cls-1" d="M395.71,146.67c-2.54,.74-4.23,.42-5.08-.94-.63-1.26,0-3.15,1.9-5.66,.63-.84,.9-1.26,.79-1.26-.42,.21-1.27,.31-2.54,.31l-2.22,.16-2.38,2.52c-2.22,2.52-3.28,3.99-3.17,4.41,.11,.32,0,.47-.32,.47l-.32-.31c-.21-.1-.37-.21-.48-.32-.21-.31-.26-.73-.16-1.26l1.11-2.04c.63-.84,2.25-2.65,4.84-5.43,2.59-2.78,4.31-4.59,5.16-5.43,1.16-.94,1.9-1.26,2.22-.94,.74,.53-.37,2.31-3.33,5.35l-2.54,2.36,1.75-.16c2.01-.1,3.44-.52,4.28-1.26,2.22-2.1,3.65-2.83,4.28-2.2,.53,.42,.26,1.05-.79,1.89-1.17,.94-2.46,2.18-3.89,3.7-1.43,1.52-2.36,2.65-2.78,3.38-.53,1.57-.19,2.36,1.03,2.36s2.56-.37,4.05-1.1c2.75-1.05,6.82-3.46,12.22-7.24l3.01-2.05c.21-.1,.37-.1,.48,0,.1,.11,.1,.26,0,.47-.32,.42-2.86,2.26-7.62,5.51-3.7,2.62-6.88,4.2-9.52,4.72Z"/>
        <path class="cls-1" d="M364.3,201.9c-2.96,0-3.17-2.83-.63-8.5l1.27-2.36c5.5-10.38,13.65-20.4,24.44-30.05,4.34-3.78,10.84-8.08,19.52-12.9,1.37-.73,2.48-1.78,3.33-3.15l1.43-2.2-.63,.47-.32,.31c-1.27,1.16-2.49,1.89-3.65,2.2-1.17,.31-1.96,.11-2.38-.63-.85-1.57,.29-3.96,3.41-7.16,3.12-3.2,5.79-4.8,8.01-4.8,.85,0,1.32,.16,1.43,.47,.32,.21,.53,.26,.63,.16l2.22-2.67c1.8-2.31,2.96-3.67,3.49-4.09,.95-.94,1.59-1.42,1.9-1.42l.32,.31c0,.32-.42,.89-1.27,1.73-2.43,2.94-6.56,8.6-12.38,16.99l-1.11,1.57c6.45-2.83,12.16-5.87,17.14-9.13l1.59-1.1c.21-.21,.42-.1,.63,.32-.11,.21-.37,.47-.79,.79l-.63,.47c-2.43,1.78-8.67,5.14-18.72,10.07l-1.9,2.52c-8.04,11.54-17.03,23.24-26.97,35.09-9.31,11.12-15.76,16.68-19.36,16.68Zm-.48-.94c2.43,.21,6.72-3.04,12.85-9.76,9.42-10.38,19.46-23.23,30.15-38.55l2.86-3.93c-3.59,1.79-6.98,3.73-10.16,5.82-3.7,2.31-7.88,5.72-12.53,10.23-4.65,4.51-8.41,8.71-11.27,12.59-7.51,9.44-11.69,16.57-12.54,21.4-.32,1.47-.1,2.2,.63,2.2Zm44.59-56.02c1.16,0,2.78-.97,4.84-2.91,2.06-1.94,3.67-3.75,4.84-5.43,.74-1.05,1.11-1.73,1.11-2.05s-.16-.47-.48-.47c-1.9,0-4.66,2.1-8.25,6.29-2.64,3.04-3.33,4.56-2.06,4.56Z"/>
        <path class="cls-1" d="M397.93,191.05c-.1,.21-.37,.1-.79-.31l-.48-.16,1.43-2.2,15.23-24.7c12.8-20.14,22.21-33.93,28.24-41.38,.74-.84,1.27-1.21,1.59-1.1,.32,0,.48,.05,.48,.16,0,.53-1.9,3.52-5.71,8.97l-3.81,5.35,.32,.47,.32,.63,2.86-1.57c2.75-1.36,4.76-2.15,6.03-2.36,1.06,0,1.69,.31,1.9,.94,.42,1.05-.53,3.09-2.86,6.14l-2.06,2.36c4.02,1.57,8.94,.74,14.76-2.52,1.8-1.05,3.65-2.25,5.55-3.62,.21-.21,.4-.26,.56-.16,.16,.11,.18,.26,.08,.47l-.79,.79c-2.33,1.79-4.28,3.04-5.87,3.78-5.5,2.83-10.58,3.52-15.23,2.05l-1.43,1.57c-3.81,3.57-6.4,4.15-7.78,1.73-.53-1.05-.53-2.41,0-4.09l.16-.79c-.21,.31-1.48,2.1-3.81,5.35-5.39,7.34-11.48,16.63-18.25,27.85-6.35,10.17-9.89,15.63-10.63,16.36Zm33.96-44.21c.84,.21,1.85-.16,3.01-1.1,.32-.21,.77-.58,1.35-1.1,.58-.52,1.08-1,1.51-1.42l.48-.79c-1.38-.73-2.59-1.89-3.65-3.46-.11-.32-.42-.26-.95,.16-.53,.42-1.06,1.21-1.59,2.36-1.17,3.25-1.22,5.04-.16,5.35Zm7.14-5.19c.1,0,.4-.26,.87-.79,.48-.52,1.03-1.18,1.67-1.97,.63-.79,1.11-1.44,1.43-1.97,.63-.84,1.06-1.57,1.27-2.2,.21-.52,.26-.84,.16-.94-.32-.32-2.06,.26-5.24,1.73-2.54,1.36-3.81,2.31-3.81,2.83,0,.31,.45,.94,1.35,1.89,.9,.94,1.67,1.42,2.3,1.42Z"/>
        <path class="cls-1" d="M462.67,147.15c-.74-.42-1.11-1.2-1.11-2.36s.21-2.25,.63-3.3l.32-.79-.95,.47c-.53,.42-1.01,.74-1.43,.94-.21,.11-.58,.31-1.11,.63-.53,.31-.95,.58-1.27,.79-.74,.42-1.4,.39-1.98-.08-.58-.47-.71-1.18-.4-2.12,.42-1.05,1.56-2.31,3.41-3.78,1.85-1.47,3.52-2.41,5-2.83,1.27-.31,2.17-.05,2.7,.79,.21,.31,.37,.42,.48,.31,.53-.21,.9-.1,1.11,.31l-.16,.16c-.11,.21-.21,.39-.32,.55-.11,.16-.21,.34-.32,.55-2.12,2.1-3.49,3.99-4.12,5.67-.53,1.68-.48,2.78,.16,3.3,.95,.63,3.12,.26,6.51-1.1,3.49-1.36,7.83-3.99,13.01-7.87,1.8-1.36,2.64-1.73,2.54-1.1-.11,.42-1.56,1.63-4.36,3.62-2.8,1.99-5.26,3.57-7.38,4.72-1.38,.74-2.75,1.36-4.12,1.89-1.38,.53-2.67,.87-3.89,1.02-1.22,.16-2.2,.03-2.94-.39Zm-4.28-6.14c-.53,.63-.74,.94-.63,.94s1-.47,2.7-1.42c3.59-1.99,5.39-3.51,5.39-4.56-.21-.63-1.06-.42-2.54,.63-1.8,1.16-3.44,2.62-4.92,4.41Z"/>
      </g>
    </g>
  </g>
</svg>